HIERARCHY
ROOT root
{
	OFFSET 0.000000 0.000000 0.000000
	CHANNELS 6 Xposition Yposition Zposition Zrotation Yrotation Xrotation
	JOINT lhip
	{
		OFFSET 0.058581 -0.082280 -0.017664
		CHANNELS 3 Zrotation Yrotation Xrotation
		JOINT lknee
		{
			OFFSET 0.043451 -0.386469 0.008037
			CHANNELS 3 Zrotation Yrotation Xrotation
			JOINT lankle
			{
				OFFSET -0.014790 -0.426874 -0.037428
				CHANNELS 3 Zrotation Yrotation Xrotation
				JOINT ltoe
				{
					OFFSET 0.041054 -0.060286 0.122042
					CHANNELS 3 Zrotation Yrotation Xrotation
					End Site
					{
						OFFSET 0.000000 0.000000 0.000000
					}
				}
			}
		}
	}
	JOINT rhip
	{
		OFFSET -0.060310 -0.090513 -0.013543
		CHANNELS 3 Zrotation Yrotation Xrotation
		JOINT rknee
		{
			OFFSET -0.043257 -0.383688 -0.004843
			CHANNELS 3 Zrotation Yrotation Xrotation
			JOINT rankle
			{
				OFFSET 0.019056 -0.420046 -0.034562
				CHANNELS 3 Zrotation Yrotation Xrotation
				JOINT rtoe
				{
					OFFSET -0.034840 -0.062106 0.130323
					CHANNELS 3 Zrotation Yrotation Xrotation
					End Site
					{
						OFFSET 0.000000 0.000000 0.000000
					}
				}
			}
		}
	}
	JOINT lowerback
	{
		OFFSET 0.004439 0.124404 -0.038385
		CHANNELS 3 Zrotation Yrotation Xrotation
		JOINT upperback
		{
			OFFSET 0.004488 0.137956 0.026820
			CHANNELS 3 Zrotation Yrotation Xrotation
			JOINT chest
			{
				OFFSET -0.002265 0.056032 0.002855
				CHANNELS 3 Zrotation Yrotation Xrotation
				JOINT lowerneck
				{
					OFFSET -0.013390 0.211636 -0.033468
					CHANNELS 3 Zrotation Yrotation Xrotation
					JOINT upperneck
					{
						OFFSET 0.010113 0.088937 0.050410
						CHANNELS 3 Zrotation Yrotation Xrotation
						End Site
						{
							OFFSET 0.000000 0.000000 0.000000
						}
					}
				}
				JOINT lclavicle
				{
					OFFSET 0.071702 0.114000 -0.018898
					CHANNELS 3 Zrotation Yrotation Xrotation
					JOINT lshoulder
					{
						OFFSET 0.122921 0.045205 -0.019046
						CHANNELS 3 Zrotation Yrotation Xrotation
						JOINT lelbow
						{
							OFFSET 0.255332 -0.015649 -0.022946
							CHANNELS 3 Zrotation Yrotation Xrotation
							JOINT lwrist
							{
								OFFSET 0.265709 0.012698 -0.007375
								CHANNELS 3 Zrotation Yrotation Xrotation
								End Site
								{
									OFFSET 0.000000 0.000000 0.000000
								}
							}
						}
					}
				}
				JOINT rclavicle
				{
					OFFSET -0.082954 0.112472 -0.023707
					CHANNELS 3 Zrotation Yrotation Xrotation
					JOINT rshoulder
					{
						OFFSET -0.113228 0.046853 -0.008472
						CHANNELS 3 Zrotation Yrotation Xrotation
						JOINT relbow
						{
							OFFSET -0.260127 -0.014369 -0.031269
							CHANNELS 3 Zrotation Yrotation Xrotation
							JOINT rwrist
							{
								OFFSET -0.269108 0.006794 -0.006027
								CHANNELS 3 Zrotation Yrotation Xrotation
								End Site
								{
									OFFSET 0.000000 0.000000 0.000000
								}
							}
						}
					}
				}
			}
		}
	}
}
MOTION
Frames: 13
Frame Time: 0.033333
-0.215894 0.347958 0.828660 64.123139 3.788593 98.634720 28.923105 17.293672 -24.901512 -10.781596 1.202000 59.107504 -9.639898 1.636399 -34.128512 0.000000 -0.000000 0.000000 -24.524955 -22.934977 -54.023921 1.742721 -21.134973 44.192144 7.774286 -0.858235 -16.150384 0.000000 -0.000000 0.000000 0.065029 -0.646923 49.332299 9.779922 -5.237628 4.063390 8.924455 -4.248313 -2.436658 2.505165 8.359203 -20.648332 7.793121 -5.628349 -20.785136 -23.292764 -6.684341 5.025085 -35.990904 -6.352414 -12.257314 27.462388 -39.019141 -31.992862 21.675308 -2.390205 -34.909661 29.446183 4.652895 0.378354 32.917424 10.681967 -7.791228 -76.198061 53.070676 -79.417984 -20.995883 7.775304 -37.028592 
-0.162259 0.240930 0.828777 63.422835 1.971302 97.952284 33.473154 14.302355 -13.925914 -10.374160 -1.701113 52.653313 -16.398239 -0.303659 -23.718716 0.000000 -0.000000 0.000000 -26.171091 -22.371172 -51.242366 2.553228 -25.353508 41.095025 6.717480 -0.720517 -15.928413 0.000000 -0.000000 0.000000 0.569605 -4.388583 43.887111 8.703425 -5.229459 6.001574 7.463069 -5.036693 -3.131959 0.740140 8.259485 -17.031428 4.505763 -4.669454 -19.010909 -25.618037 -4.553272 6.387669 -39.430370 -5.842214 -10.598732 26.692824 -36.240824 -29.543546 19.042467 -3.907701 -35.153968 30.686233 4.512437 1.539033 32.719129 12.216574 -7.428208 -61.832973 53.596415 -66.261326 -21.072199 8.521919 -35.153653 
-0.110126 0.126260 0.829772 61.857958 -1.551713 96.294843 33.211990 9.164826 -7.102001 -7.852832 -5.516797 50.288663 -15.233975 3.822795 -5.122306 0.000000 -0.000000 0.000000 -24.562221 -23.718584 -51.383339 2.744077 -19.678966 50.965393 2.249511 -0.121175 -5.203707 0.000000 -0.000000 0.000000 -1.340265 -5.193975 38.391334 6.738052 -4.926884 7.657642 6.584101 -5.975532 -2.313170 -1.039960 5.543894 -15.145586 2.924251 -2.245405 -15.905784 -27.566827 -0.959423 6.579653 -43.833734 -5.060470 -9.147910 29.206628 -36.430871 -31.340914 19.411030 -1.893263 -36.895136 31.284207 5.197027 2.163757 33.689986 15.441752 -6.846260 -48.214242 48.549800 -58.552746 -20.231155 7.734676 -34.625293 
-0.064504 0.019578 0.837424 60.349602 -2.501761 95.153540 31.443992 4.819833 -6.990227 -7.269237 -5.505949 54.132325 -9.674688 10.646517 -9.030905 0.000000 -0.000000 0.000000 -26.174554 -20.099343 -49.115649 1.896433 -22.974415 63.909561 0.371499 -1.912255 -17.313743 0.000000 -0.000000 0.000000 -0.372493 -5.359989 35.612804 5.371545 -2.456927 8.028916 4.384178 -5.474546 -2.223873 -0.984578 2.847254 -13.657511 0.937051 -4.280009 -14.756207 -28.439598 0.601582 7.164091 -48.008034 -4.376719 -6.778100 32.835869 -37.822235 -32.883617 20.285617 0.191385 -38.918151 30.273990 6.096482 1.585547 34.595865 16.357080 -6.680701 -42.010543 43.514630 -56.188188 -22.268796 5.884991 -38.078145 
-0.023545 -0.086359 0.850504 60.333937 -2.748342 93.504915 29.822785 6.721060 -13.639248 -6.384209 0.077776 65.740434 -6.764477 11.051261 -13.403250 0.000000 -0.000000 0.000000 -22.324414 -18.781240 -43.501978 1.315902 -21.620361 70.248981 -2.982636 -4.373529 -27.160954 0.000000 -0.000000 0.000000 -0.407108 -2.752286 35.015770 4.731757 -1.710869 7.310925 3.530486 -4.484625 -1.580772 1.349231 0.661629 -12.744719 2.087086 -6.574068 -12.809882 -27.898083 1.330887 7.206110 -49.266655 -2.591410 -6.230226 31.930608 -41.144284 -28.707157 18.276413 0.221089 -40.137031 29.143617 6.021714 1.117830 36.037564 16.672311 -8.390732 -37.607259 41.588354 -51.589267 -22.514313 5.112095 -39.427217 
0.013013 -0.188983 0.867695 61.367828 -3.080457 92.019865 25.861767 10.339972 -23.917922 -6.719499 7.193777 76.977262 -5.797288 8.072405 -16.249554 0.000000 -0.000000 0.000000 -20.474762 -18.437010 -38.289101 0.042298 -20.886546 77.904412 -0.837751 -0.690464 -25.229168 0.000000 -0.000000 0.000000 -1.925163 1.230739 35.342338 4.654520 -2.212887 6.001883 3.618669 -3.343745 -1.321265 3.897080 -1.254712 -9.211070 6.218292 -8.271085 -12.574218 -26.717376 0.971182 7.375052 -47.729062 1.399009 -5.945965 28.946607 -46.033093 -25.995078 15.498264 -0.853977 -40.043346 28.963405 5.856667 0.420608 38.679740 14.837223 -8.632409 -37.333483 41.816456 -52.531784 -20.068170 4.570089 -40.358276 
0.051271 -0.288330 0.886723 63.465962 -0.166475 90.096291 22.265156 12.561335 -34.027683 -6.944419 14.774442 81.815187 -3.284742 5.204965 -17.326040 0.000000 -0.000000 0.000000 -19.405297 -16.596496 -33.950712 0.718081 -21.354751 84.675007 5.950827 5.999876 -6.530240 0.000000 -0.000000 0.000000 -1.603362 3.804674 36.726546 6.854162 -2.690082 5.431464 4.787149 -1.919223 -2.182214 5.375308 -5.760367 -3.249353 9.847059 -8.857272 -12.519675 -25.662507 -0.130622 8.196444 -47.945095 5.018350 -3.870884 24.907497 -49.496632 -21.047260 14.676580 -1.865861 -37.691420 27.499669 5.776575 -0.069654 39.933810 13.269028 -9.076307 -37.106658 42.309995 -52.055619 -17.795016 4.751664 -40.371410 
0.090405 -0.385718 0.896388 66.628024 2.930538 89.982746 15.060959 11.883333 -44.426457 -9.472305 19.363830 76.554007 -1.194542 1.892326 -17.119675 0.000000 -0.000000 0.000000 -18.293280 -15.414278 -32.664448 0.723998 -21.093214 88.209486 6.399811 5.661116 0.434022 0.000000 -0.000000 0.000000 0.160666 4.928543 36.499754 8.924054 -3.479494 4.657409 5.676251 -1.533784 -0.915763 8.286587 -8.083632 -1.499971 10.881745 -9.815777 -13.742746 -24.235490 -0.690054 8.772244 -47.819144 7.478883 -0.450557 18.422342 -53.551051 -14.436350 14.025922 -2.781226 -37.230432 26.334039 4.950849 -0.741873 40.014789 14.210963 -9.040407 -36.237593 42.030253 -51.951766 -16.059549 5.607719 -38.293086 
0.127883 -0.475227 0.897962 67.766841 5.180338 89.821116 7.403677 10.324615 -49.050979 -14.729211 20.359164 61.684554 -3.819622 -5.978432 -14.020343 0.000000 -0.000000 0.000000 -18.305201 -14.011882 -33.749377 -4.473070 -18.250047 87.110622 0.453416 -6.072447 -5.443518 0.000000 -0.000000 0.000000 2.789174 4.471346 37.645900 8.857298 -3.143440 4.877453 5.976113 -1.347914 0.049741 8.491737 -8.587866 -4.151143 10.898904 -8.398432 -14.934080 -23.910430 -1.220557 9.239175 -48.298377 9.500717 1.888742 13.111221 -56.552923 -8.159192 13.163056 -4.569626 -37.462001 25.701904 7.080867 -0.666601 37.839503 15.205678 -8.313780 -36.240053 39.664291 -54.878234 -14.302257 6.328282 -36.174645 
0.170480 -0.561009 0.893112 64.776654 7.593713 87.413979 4.352836 8.191642 -44.877629 -17.460708 18.146085 44.458110 -10.892088 -8.960739 -3.855716 0.000000 -0.000000 0.000000 -19.415965 -11.209301 -34.981345 -3.122938 -15.640171 76.492143 1.451176 -1.991986 -10.340249 0.000000 -0.000000 0.000000 5.267139 3.134854 41.734413 7.843829 -1.832921 6.450593 5.860868 -0.225410 -1.374229 6.172283 -5.239250 -5.324951 9.006576 -7.080559 -17.243172 -24.390393 -0.868820 8.071637 -52.398297 11.993630 4.490412 12.649528 -56.183498 -8.082033 11.488368 -7.127941 -37.662999 25.475904 10.038939 -0.049750 32.855621 17.863963 -9.495672 -32.217680 37.375623 -53.958188 -13.942350 6.940761 -32.859869 
0.219306 -0.648195 0.872187 60.689190 9.720352 85.489620 2.149261 5.074751 -40.489228 -14.725438 15.587433 37.350591 6.174000 -1.703642 -6.423664 0.000000 -0.000000 0.000000 -21.005641 -10.555152 -36.723141 3.412194 -14.281001 58.496296 3.963372 -2.257591 -9.866569 0.000000 -0.000000 0.000000 6.295964 2.088385 42.675663 7.956423 0.039883 4.718075 6.022303 -0.379258 0.957889 5.503244 -4.864003 -6.669008 5.099100 -4.999113 -13.429476 -24.541214 1.784221 8.683046 -58.709053 9.938817 7.030227 11.012666 -52.050637 -6.261335 14.867633 -4.542493 -38.176126 25.237126 10.351840 -0.118069 28.514917 23.137792 -8.585136 -29.088741 34.872465 -52.264988 -13.933787 7.694202 -29.273558 
0.266809 -0.738656 0.842085 56.671208 11.495844 83.929749 3.216369 5.082869 -43.830295 -4.555062 17.451791 55.018519 13.171791 9.720433 -21.582908 0.000000 -0.000000 0.000000 -19.783225 -11.624152 -37.982429 4.795730 -13.111644 39.111933 7.863793 -1.055071 -7.777903 0.000000 -0.000000 0.000000 7.030254 1.740375 42.138120 7.396891 0.723805 1.219877 6.540202 -0.207982 3.594136 3.615674 -4.736916 -5.366626 3.327473 -2.531705 -9.178834 -23.863756 3.888835 10.043765 -64.554155 8.298923 5.240210 6.557548 -47.028985 0.711063 14.822122 -3.381126 -39.703866 25.142634 9.294704 1.407144 27.910319 26.447789 -9.537335 -28.570295 36.834823 -48.241780 -16.588188 6.752775 -31.228417 
0.305126 -0.830678 0.821535 56.005569 8.082726 80.167743 6.521683 4.538243 -42.538519 -2.727793 17.311515 72.125720 7.502018 9.881644 -27.451691 0.000000 -0.000000 0.000000 -21.096646 -14.806162 -36.498290 3.747738 -12.848910 27.174198 12.817228 2.606032 -5.682650 0.000000 -0.000000 0.000000 4.337457 4.772740 44.710841 7.248907 -1.170558 2.699773 7.065571 -0.791604 4.059684 5.127873 -1.410359 -8.796164 2.893861 -5.171500 -8.277163 -24.446682 3.026330 8.749945 -64.625643 5.310334 5.310412 5.621863 -42.971721 0.621033 13.204370 -4.989186 -39.159481 27.586994 9.076777 0.411761 28.073581 28.314285 -8.846336 -32.912848 39.668901 -50.127537 -16.166205 6.335094 -32.893980 
